<svg width="33" height="24" viewBox="0 0 33 24" fill="none" xmlns="http://www.w3.org/2000/svg">
<mask id="mask0_80_7956" style="mask-type:luminance" maskUnits="userSpaceOnUse" x="0" y="0" width="33" height="24">
<path d="M30.6689 0.571442H3.2403C1.97794 0.571442 0.95459 1.59479 0.95459 2.85716V21.1429C0.95459 22.4052 1.97794 23.4286 3.2403 23.4286H30.6689C31.9312 23.4286 32.9546 22.4052 32.9546 21.1429V2.85716C32.9546 1.59479 31.9312 0.571442 30.6689 0.571442Z" fill="white"/>
</mask>
<g mask="url(#mask0_80_7956)">
<path d="M30.6689 0.571442H3.2403C1.97794 0.571442 0.95459 1.59479 0.95459 2.85716V21.1429C0.95459 22.4052 1.97794 23.4286 3.2403 23.4286H30.6689C31.9312 23.4286 32.9546 22.4052 32.9546 21.1429V2.85716C32.9546 1.59479 31.9312 0.571442 30.6689 0.571442Z" fill="white"/>
<mask id="mask1_80_7956" style="mask-type:alpha" maskUnits="userSpaceOnUse" x="0" y="0" width="33" height="24">
<path d="M30.6689 0.571442H3.2403C1.97794 0.571442 0.95459 1.59479 0.95459 2.85716V21.1429C0.95459 22.4052 1.97794 23.4286 3.2403 23.4286H30.6689C31.9312 23.4286 32.9546 22.4052 32.9546 21.1429V2.85716C32.9546 1.59479 31.9312 0.571442 30.6689 0.571442Z" fill="white"/>
</mask>
<g mask="url(#mask1_80_7956)">
<path d="M32.9546 0.571442H0.95459V23.4286H32.9546V0.571442Z" fill="#05AB41"/>
<path fill-rule="evenodd" clip-rule="evenodd" d="M4.99058 12.6397C4.52658 12.3394 4.52658 11.6606 4.99058 11.3604L16.5405 3.88691C16.7924 3.72394 17.1164 3.72394 17.3683 3.88691L28.9182 11.3604C29.3822 11.6606 29.3822 12.3394 28.9182 12.6397L17.3683 20.1132C17.1164 20.2761 16.7924 20.2761 16.5405 20.1132L4.99058 12.6397Z" fill="#FDD216"/>
<path fill-rule="evenodd" clip-rule="evenodd" d="M16.955 17.3333C19.9004 17.3333 22.2882 14.9455 22.2882 12C22.2882 9.05447 19.9004 6.66666 16.955 6.66666C14.0094 6.66666 11.6216 9.05447 11.6216 12C11.6216 14.9455 14.0094 17.3333 16.955 17.3333Z" fill="#053087"/>
<mask id="mask2_80_7956" style="mask-type:alpha" maskUnits="userSpaceOnUse" x="11" y="6" width="12" height="12">
<path fill-rule="evenodd" clip-rule="evenodd" d="M16.955 17.3333C19.9004 17.3333 22.2882 14.9455 22.2882 12C22.2882 9.05447 19.9004 6.66666 16.955 6.66666C14.0094 6.66666 11.6216 9.05447 11.6216 12C11.6216 14.9455 14.0094 17.3333 16.955 17.3333Z" fill="white"/>
</mask>
<g mask="url(#mask2_80_7956)">
<path d="M10.9888 10.606C11.8261 9.92788 14.5282 10.5702 17.0506 11.2431C19.5729 11.9159 22.2037 13.3262 22.8735 14.1534" stroke="white" stroke-width="3" stroke-linecap="square"/>
</g>
</g>
</g>
</svg>
