<svg width="27" height="27" viewBox="0 0 27 27" fill="none" xmlns="http://www.w3.org/2000/svg">
<g clip-path="url(#clip0_62_473)">
<path d="M9 27C11.484 27 13.5 24.984 13.5 22.5V18H9C6.516 18 4.5 20.016 4.5 22.5C4.5 24.984 6.516 27 9 27Z" fill="#0ACF83"/>
<path d="M4.5 13.5C4.5 11.016 6.516 9 9 9H13.5V18H9C6.516 18 4.5 15.984 4.5 13.5Z" fill="#A259FF"/>
<path d="M4.5 4.5C4.5 2.016 6.516 0 9 0H13.5V9H9C6.516 9 4.5 6.984 4.5 4.5Z" fill="#F24E1E"/>
<path d="M13.5 0H18C20.484 0 22.5 2.016 22.5 4.5C22.5 6.984 20.484 9 18 9H13.5V0Z" fill="#FF7262"/>
<path d="M22.5 13.5C22.5 15.984 20.484 18 18 18C15.516 18 13.5 15.984 13.5 13.5C13.5 11.016 15.516 9 18 9C20.484 9 22.5 11.016 22.5 13.5Z" fill="#1ABCFE"/>
</g>
<defs>
<clipPath id="clip0_62_473">
<rect width="27" height="27" fill="white"/>
</clipPath>
</defs>
</svg>
