<svg width="32" height="32" viewBox="0 0 32 32" fill="none" xmlns="http://www.w3.org/2000/svg">
<g clip-path="url(#clip0_102_522)">
<path d="M29.9702 0H2.03274C0.910715 0 0 0.910715 0 2.03274V29.9673C0 31.0893 0.910715 32 2.03274 32H29.9673C31.0893 32 32 31.0893 32 29.9702V2.03274C32 0.910715 31.0893 0 29.9702 0ZM17.5238 24.5208C17.5238 27.5655 15.7381 28.9524 13.131 28.9524C10.7738 28.9524 9.0744 27.372 8.38095 25.9048L10.7768 24.4554C11.2381 25.2738 11.9405 25.9048 12.9524 25.9048C13.9196 25.9048 14.4762 25.5268 14.4762 24.0565V14.4762H17.5238V24.5208ZM24.1339 28.9524C21.4345 28.9524 19.9018 27.5923 19.0476 25.9048L21.3333 24.3809C21.9554 25.3988 22.6339 26.372 24.0684 26.372C25.2738 26.372 25.9048 25.7708 25.9048 24.9375C25.9048 23.9435 25.25 23.5893 23.9256 23.0089L23.1994 22.6964C21.1012 21.8036 19.7054 20.6845 19.7054 18.3155C19.7054 16.1369 21.369 14.4762 23.9643 14.4762C25.8125 14.4762 27.1399 15.119 28.0982 16.8036L25.8363 18.2589C25.3363 17.3631 24.8006 17.0119 23.9643 17.0119C23.1131 17.0119 22.5744 17.5536 22.5744 18.2589C22.5744 19.1309 23.1131 19.4821 24.3601 20.0238L25.0863 20.3363C27.5595 21.3929 28.9524 22.4732 28.9524 24.9018C28.9524 27.5179 26.8958 28.9524 24.1339 28.9524Z" fill="#FFD600"/>
</g>
<defs>
<clipPath id="clip0_102_522">
<rect width="32" height="32" fill="white"/>
</clipPath>
</defs>
</svg>
