<svg width="57" height="32" viewBox="0 0 57 32" fill="none" xmlns="http://www.w3.org/2000/svg">
<g clip-path="url(#clip0_102_519)">
<path d="M13.4496 8.34605H24.2003V9.14121H14.4351V15.1258H23.618V15.921H14.4351V22.4915H24.3123V23.2866H13.4496V8.34605ZM25.1634 8.34605H26.3057L31.3675 14.9166L36.5413 8.34605L43.5784 0L32.017 15.6071L37.9747 23.2866H36.7876L31.3675 16.2976L25.9249 23.2866H24.7603L30.7627 15.6071L25.1634 8.34605ZM38.4002 9.14121V8.34605H50.6516V9.14121H45.0074V23.2866H44.022V9.14121H38.4002ZM0 8.34605H1.23185L18.2184 32L11.1987 23.2866L1.03028 9.47601L0.985483 23.2866H0V8.34605ZM50.5523 22.2515C50.3509 22.2515 50.1999 22.1063 50.1999 21.9187C50.1999 21.7311 50.3509 21.586 50.5523 21.586C50.756 21.586 50.9046 21.7311 50.9046 21.9187C50.9046 22.1063 50.756 22.2515 50.5523 22.2515ZM51.5206 21.376H52.048C52.0552 21.6418 52.2637 21.8205 52.5705 21.8205C52.9133 21.8205 53.1074 21.6284 53.1074 21.2688V18.9907H53.6443V21.271C53.6443 21.9187 53.2416 22.2917 52.5753 22.2917C51.9497 22.2917 51.5206 21.9299 51.5206 21.376ZM54.3466 21.347H54.8787C54.9243 21.653 55.2455 21.8473 55.7081 21.8473C56.1395 21.8473 56.4559 21.6396 56.4559 21.3537C56.4559 21.108 56.2546 20.9606 55.7967 20.8601L55.3509 20.7596C54.7253 20.6234 54.4401 20.3419 54.4401 19.8685C54.4401 19.2945 54.9434 18.9126 55.6985 18.9126C56.4008 18.9126 56.9137 19.2945 56.9449 19.8372H56.4223C56.372 19.5401 56.094 19.3548 55.6913 19.3548C55.267 19.3548 54.9842 19.5446 54.9842 19.835C54.9842 20.065 55.1664 20.1968 55.617 20.295L55.9981 20.3821C56.7076 20.5362 57 20.8043 57 21.2889C57 21.9053 56.4871 22.2917 55.6673 22.2917C54.9003 22.2917 54.385 21.9232 54.3466 21.347Z" fill="#ADADAD"/>
</g>
<defs>
<clipPath id="clip0_102_519">
<rect width="57" height="32" fill="white"/>
</clipPath>
</defs>
</svg>
