<svg width="32" height="33" viewBox="0 0 32 33" fill="none" xmlns="http://www.w3.org/2000/svg">
<path d="M18.6791 16.0271C18.6791 14.5881 17.4798 13.4214 16.0002 13.4214C14.5208 13.4214 13.3213 14.5881 13.3213 16.0271C13.3213 17.4663 14.5208 18.6329 16.0002 18.6329C17.4798 18.6329 18.6791 17.4663 18.6791 16.0271Z" fill="#00D8FF"/>
<path fill-rule="evenodd" clip-rule="evenodd" d="M24.7004 11.1894C25.2661 8.95338 25.9772 4.80683 23.4704 3.40102C20.9753 2.00134 17.7284 4.68339 16.0139 6.29328C14.3044 4.69943 10.9663 2.02885 8.46163 3.43912C5.96751 4.8435 6.73664 8.9213 7.3149 11.1714C4.98831 11.8141 1 13.1986 1 16.0271C1 18.8476 4.98416 20.3538 7.29698 20.996C6.71658 23.2585 5.98596 27.278 8.48327 28.6793C10.9973 30.0893 14.325 27.4823 16.0554 25.8548C17.7809 27.4742 20.9966 30.0983 23.4922 28.6931C25.9956 27.2835 25.3436 23.1925 24.7653 20.9294C27.0073 20.2858 31 18.8124 31 16.0271C31 13.2258 26.9903 11.8301 24.7004 11.1894ZM24.4162 19.73C24.0365 18.5609 23.524 17.3176 22.8971 16.0333C23.4955 14.7793 23.9881 13.5521 24.3572 12.3905C26.0359 12.8639 29.7185 13.9459 29.7185 16.0271C29.7185 18.1279 26.1846 19.2201 24.4162 19.73ZM22.85 27.6142C20.988 28.6626 18.2221 26.1532 16.9478 24.9606C17.7932 24.0613 18.638 23.0157 19.4625 21.8547C20.9129 21.7296 22.283 21.525 23.5256 21.2456C23.9326 22.8464 24.7202 26.5612 22.85 27.6142ZM9.12362 27.5993C7.26143 26.5548 8.11258 22.968 8.53957 21.3014C9.76834 21.5658 11.1286 21.756 12.5824 21.8707C13.4123 23.0067 14.2816 24.0509 15.1576 24.9655C14.0753 25.9838 10.9945 28.6485 9.12362 27.5993ZM2.28149 16.0271C2.28149 13.9185 5.94207 12.8443 7.65904 12.3721C8.03451 13.5598 8.52695 14.8017 9.12123 16.0575C8.51925 17.332 8.01977 18.5935 7.64085 19.7952C6.00369 19.3394 2.28149 18.137 2.28149 16.0271ZM9.1037 4.51797C10.9735 3.46523 13.8747 6.02909 15.1159 7.18308C14.2444 8.09339 13.3831 9.12976 12.5603 10.2593C11.1494 10.3865 9.79875 10.5907 8.55709 10.8644C8.09125 9.04962 7.23592 5.56958 9.1037 4.51797ZM20.3793 11.6142C21.3365 11.7317 22.2536 11.888 23.1147 12.0792C22.8562 12.8852 22.534 13.728 22.1545 14.5919C21.6044 13.5767 21.0139 12.5818 20.3793 11.6142ZM16.0143 8.07389C16.6054 8.69675 17.1974 9.3923 17.7798 10.1469C16.5985 10.0925 15.4153 10.0923 14.234 10.1461C14.8169 9.3985 15.414 8.70399 16.0143 8.07389ZM9.8565 14.591C9.48329 13.7301 9.16398 12.8836 8.90322 12.066C9.75918 11.8798 10.672 11.7275 11.623 11.6119C10.9866 12.5774 10.3971 13.5719 9.8565 14.591ZM11.6503 20.5313C10.6679 20.4247 9.74126 20.2801 8.88556 20.0989C9.15044 19.2671 9.47678 18.4023 9.85796 17.5228C10.406 18.5526 11.0045 19.5567 11.6503 20.5313ZM16.0498 24.0684C15.4424 23.4309 14.8365 22.7257 14.2448 21.9673C15.4328 22.0126 16.6231 22.0127 17.811 21.9612C17.2268 22.7334 16.6369 23.4396 16.0498 24.0684ZM22.1667 17.478C22.5677 18.3671 22.9057 19.2271 23.1742 20.0449C22.3043 20.2381 21.3652 20.3936 20.3757 20.509C21.015 19.5231 21.6149 18.5127 22.1667 17.478ZM18.7473 20.6601C16.9301 20.7864 15.1016 20.785 13.2838 20.6704C12.2509 19.2028 11.3314 17.6594 10.5377 16.0571C11.3276 14.4581 12.2404 12.9177 13.2684 11.4524C15.0875 11.3187 16.9178 11.3183 18.7369 11.4532C19.7561 12.9184 20.6675 14.4548 21.4757 16.0393C20.6771 17.6375 19.7595 19.1811 18.7473 20.6601ZM22.8303 4.48091C24.7006 5.53021 23.8681 9.25683 23.4595 10.8773C22.2149 10.598 20.8633 10.3901 19.4483 10.2609C18.6239 9.11917 17.7698 8.08099 16.9124 7.18243C18.1695 6.00359 20.9781 3.44188 22.8303 4.48091Z" fill="#00D8FF"/>
</svg>
