<svg width="32" height="33" viewBox="0 0 32 33" fill="none" xmlns="http://www.w3.org/2000/svg">
<g clip-path="url(#clip0_62_460)">
<path d="M16.3333 3C18.9704 3 21.5483 3.78449 23.7409 5.25427C25.9336 6.72406 27.6426 8.81311 28.6517 11.2573C29.6609 13.7014 29.9249 16.3909 29.4105 18.9856C28.896 21.5803 27.6261 23.9637 25.7614 25.8344C23.8967 27.7051 21.521 28.979 18.9345 29.4951C16.3481 30.0112 13.6672 29.7463 11.2309 28.7339C8.79454 27.7215 6.71216 26.0071 5.24707 23.8074C3.78199 21.6077 3 19.0216 3 16.3761C3 12.8285 4.40476 9.42626 6.90524 6.91776C9.40573 4.40926 12.7971 3 16.3333 3ZM13.6667 20.8303C13.8672 21.484 13.8672 22.183 13.6667 22.8367C13.6667 22.9036 13.6667 22.9705 13.5867 23.0641C13.5067 23.1577 13.5867 23.1577 13.4933 23.2246C13.339 23.5549 13.1318 23.8576 12.88 24.1208C12.1067 24.9769 11 25.2979 10.56 25.0304C10.12 24.7629 10.3333 23.5323 11.2133 22.5826C11.9024 21.9006 12.6944 21.3318 13.56 20.8972L13.6667 20.8303ZM24.6933 8.79184C24.0933 6.4109 20.16 5.63509 16.4533 6.95932C14.1294 7.72217 11.9776 8.93562 10.12 10.5307C8.08 12.4569 7.74667 14.1289 7.88 14.8244C8.33333 17.2856 11.72 18.9041 13.1067 20.0946C12.7067 20.2953 9.72 21.8067 9 23.3584C8.69554 23.843 8.59475 24.4289 8.71968 24.9878C8.84461 25.5468 9.18509 26.0334 9.66667 26.3412C10.5218 26.5482 11.42 26.4815 12.2353 26.1504C13.0507 25.8194 13.7424 25.2406 14.2133 24.4953C14.6027 23.8937 14.8465 23.209 14.9253 22.496C15.004 21.783 14.9154 21.0614 14.6667 20.3889C15.335 20.2321 16.0257 20.1959 16.7067 20.2819C19.0533 20.5628 19.5067 22.0208 19.3733 22.6361C19.3336 22.8546 19.2476 23.062 19.1211 23.2443C18.9946 23.4266 18.8305 23.5796 18.64 23.6928C18.48 23.7864 18.4267 23.8265 18.44 23.9068C18.4533 23.9871 18.5333 24.0138 18.6667 23.9871C19.0304 23.8878 19.3543 23.6773 19.5933 23.3849C19.8322 23.0924 19.9744 22.7325 20 22.3552C20 20.9106 18.6667 19.3054 16.2533 19.3456C15.5486 19.329 14.846 19.4284 14.1733 19.6398L14.0667 19.5194C12.56 17.9143 9.78667 16.8442 9.90667 14.6104C9.90667 13.8212 10.2133 11.7613 15.24 9.26C19.3467 7.20009 22.64 7.76188 23.24 9.03261C24.0533 10.8116 21.48 14.1423 17.2133 14.6238C16.7462 14.7125 16.2653 14.6974 15.8046 14.5795C15.3438 14.4616 14.9145 14.2439 14.5467 13.9416C14.32 13.7142 14.2933 13.6741 14.2133 13.7142C14.1333 13.7544 14.2133 14.0219 14.2133 14.1556C14.5524 14.7415 15.1004 15.1765 15.7467 15.3729C17.4283 15.737 19.1814 15.5639 20.76 14.8779C23.2667 13.8614 25.2933 11.0256 24.6933 8.72496V8.79184Z" fill="#EC407A"/>
</g>
<defs>
<clipPath id="clip0_62_460">
<rect width="32" height="32.1026" fill="white"/>
</clipPath>
</defs>
</svg>
