<svg width="32" height="32" viewBox="0 0 32 32" fill="none" xmlns="http://www.w3.org/2000/svg">
<path d="M8 12.3333C9.06667 8.11111 11.7333 6 16 6C22.4 6 23.2 10.75 26.4 11.5417C28.5333 12.0694 30.4 11.2778 32 9.16667C30.9333 13.3889 28.2667 15.5 24 15.5C17.6 15.5 16.8 10.75 13.6 9.95833C11.4667 9.43056 9.6 10.2222 8 12.3333ZM0 21.8333C1.06667 17.6111 3.73333 15.5 8 15.5C14.4 15.5 15.2 20.25 18.4 21.0417C20.5333 21.5694 22.4 20.7778 24 18.6667C22.9333 22.8889 20.2667 25 16 25C9.6 25 8.8 20.25 5.6 19.4583C3.46667 18.9306 1.6 19.7222 0 21.8333Z" fill="#38BDF8"/>
</svg>
