<svg width="33" height="23" viewBox="0 0 33 23" fill="none" xmlns="http://www.w3.org/2000/svg">
<path d="M30.623 0H3.19441C1.93204 0 0.908691 1.02335 0.908691 2.28571V20.5714C0.908691 21.8338 1.93204 22.8571 3.19441 22.8571H30.623C31.8853 22.8571 32.9087 21.8338 32.9087 20.5714V2.28571C32.9087 1.02335 31.8853 0 30.623 0Z" fill="white"/>
<mask id="mask0_85_537" style="mask-type:alpha" maskUnits="userSpaceOnUse" x="0" y="0" width="33" height="23">
<path d="M30.623 0H3.19441C1.93204 0 0.908691 1.02335 0.908691 2.28571V20.5714C0.908691 21.8338 1.93204 22.8571 3.19441 22.8571H30.623C31.8853 22.8571 32.9087 21.8338 32.9087 20.5714V2.28571C32.9087 1.02335 31.8853 0 30.623 0Z" fill="white"/>
</mask>
<g mask="url(#mask0_85_537)">
<path fill-rule="evenodd" clip-rule="evenodd" d="M32.9087 0H0.908691V1.52381H32.9087V0ZM32.9087 3.04762H0.908691V4.57143H32.9087V3.04762ZM0.908691 6.09523H32.9087V7.61905H0.908691V6.09523ZM32.9087 9.14286H0.908691V10.6667H32.9087V9.14286ZM0.908691 12.1905H32.9087V13.7143H0.908691V12.1905ZM32.9087 15.2381H0.908691V16.7619H32.9087V15.2381ZM0.908691 18.2857H32.9087V19.8095H0.908691V18.2857ZM32.9087 21.3334H0.908691V22.8571H32.9087V21.3334Z" fill="#D02F44"/>
<path d="M14.623 0H0.908691V10.6667H14.623V0Z" fill="#46467F"/>
<g filter="url(#filter0_d_85_537)">
<path fill-rule="evenodd" clip-rule="evenodd" d="M3.95643 2.2857C3.95643 2.70649 3.61531 3.04761 3.19453 3.04761C2.77374 3.04761 2.43262 2.70649 2.43262 2.2857C2.43262 1.86492 2.77374 1.5238 3.19453 1.5238C3.61531 1.5238 3.95643 1.86492 3.95643 2.2857ZM7.00405 2.2857C7.00405 2.70649 6.66294 3.04761 6.24215 3.04761C5.82136 3.04761 5.48024 2.70649 5.48024 2.2857C5.48024 1.86492 5.82136 1.5238 6.24215 1.5238C6.66294 1.5238 7.00405 1.86492 7.00405 2.2857ZM9.28976 3.04761C9.71055 3.04761 10.0517 2.70649 10.0517 2.2857C10.0517 1.86492 9.71055 1.5238 9.28976 1.5238C8.86897 1.5238 8.52786 1.86492 8.52786 2.2857C8.52786 2.70649 8.86897 3.04761 9.28976 3.04761ZM13.0992 2.2857C13.0992 2.70649 12.7582 3.04761 12.3374 3.04761C11.9166 3.04761 11.5755 2.70649 11.5755 2.2857C11.5755 1.86492 11.9166 1.5238 12.3374 1.5238C12.7582 1.5238 13.0992 1.86492 13.0992 2.2857ZM4.71833 4.57141C5.13912 4.57141 5.48024 4.23031 5.48024 3.80952C5.48024 3.38873 5.13912 3.04761 4.71833 3.04761C4.29754 3.04761 3.95643 3.38873 3.95643 3.80952C3.95643 4.23031 4.29754 4.57141 4.71833 4.57141ZM8.52786 3.80952C8.52786 4.23031 8.18674 4.57141 7.76595 4.57141C7.34517 4.57141 7.00405 4.23031 7.00405 3.80952C7.00405 3.38873 7.34517 3.04761 7.76595 3.04761C8.18674 3.04761 8.52786 3.38873 8.52786 3.80952ZM10.8136 4.57141C11.2344 4.57141 11.5755 4.23031 11.5755 3.80952C11.5755 3.38873 11.2344 3.04761 10.8136 3.04761C10.3928 3.04761 10.0517 3.38873 10.0517 3.80952C10.0517 4.23031 10.3928 4.57141 10.8136 4.57141ZM13.0992 5.33332C13.0992 5.75411 12.7582 6.09523 12.3374 6.09523C11.9166 6.09523 11.5755 5.75411 11.5755 5.33332C11.5755 4.91253 11.9166 4.57141 12.3374 4.57141C12.7582 4.57141 13.0992 4.91253 13.0992 5.33332ZM9.28976 6.09523C9.71055 6.09523 10.0517 5.75411 10.0517 5.33332C10.0517 4.91253 9.71055 4.57141 9.28976 4.57141C8.86897 4.57141 8.52786 4.91253 8.52786 5.33332C8.52786 5.75411 8.86897 6.09523 9.28976 6.09523ZM7.00405 5.33332C7.00405 5.75411 6.66294 6.09523 6.24215 6.09523C5.82136 6.09523 5.48024 5.75411 5.48024 5.33332C5.48024 4.91253 5.82136 4.57141 6.24215 4.57141C6.66294 4.57141 7.00405 4.91253 7.00405 5.33332ZM3.19453 6.09523C3.61531 6.09523 3.95643 5.75411 3.95643 5.33332C3.95643 4.91253 3.61531 4.57141 3.19453 4.57141C2.77374 4.57141 2.43262 4.91253 2.43262 5.33332C2.43262 5.75411 2.77374 6.09523 3.19453 6.09523ZM5.48024 6.85713C5.48024 7.27793 5.13912 7.61904 4.71833 7.61904C4.29754 7.61904 3.95643 7.27793 3.95643 6.85713C3.95643 6.43634 4.29754 6.09523 4.71833 6.09523C5.13912 6.09523 5.48024 6.43634 5.48024 6.85713ZM7.76595 7.61904C8.18674 7.61904 8.52786 7.27793 8.52786 6.85713C8.52786 6.43634 8.18674 6.09523 7.76595 6.09523C7.34517 6.09523 7.00405 6.43634 7.00405 6.85713C7.00405 7.27793 7.34517 7.61904 7.76595 7.61904ZM11.5755 6.85713C11.5755 7.27793 11.2344 7.61904 10.8136 7.61904C10.3928 7.61904 10.0517 7.27793 10.0517 6.85713C10.0517 6.43634 10.3928 6.09523 10.8136 6.09523C11.2344 6.09523 11.5755 6.43634 11.5755 6.85713ZM12.3374 9.14285C12.7582 9.14285 13.0992 8.80173 13.0992 8.38095C13.0992 7.96016 12.7582 7.61904 12.3374 7.61904C11.9166 7.61904 11.5755 7.96016 11.5755 8.38095C11.5755 8.80173 11.9166 9.14285 12.3374 9.14285ZM10.0517 8.38095C10.0517 8.80173 9.71055 9.14285 9.28976 9.14285C8.86897 9.14285 8.52786 8.80173 8.52786 8.38095C8.52786 7.96016 8.86897 7.61904 9.28976 7.61904C9.71055 7.61904 10.0517 7.96016 10.0517 8.38095ZM6.24215 9.14285C6.66294 9.14285 7.00405 8.80173 7.00405 8.38095C7.00405 7.96016 6.66294 7.61904 6.24215 7.61904C5.82136 7.61904 5.48024 7.96016 5.48024 8.38095C5.48024 8.80173 5.82136 9.14285 6.24215 9.14285ZM3.95643 8.38095C3.95643 8.80173 3.61531 9.14285 3.19453 9.14285C2.77374 9.14285 2.43262 8.80173 2.43262 8.38095C2.43262 7.96016 2.77374 7.61904 3.19453 7.61904C3.61531 7.61904 3.95643 7.96016 3.95643 8.38095Z" fill="url(#paint0_linear_85_537)"/>
</g>
</g>
<defs>
<filter id="filter0_d_85_537" x="2.43262" y="1.5238" width="10.6665" height="36.1905" filterUnits="userSpaceOnUse" color-interpolation-filters="sRGB">
<feFlood flood-opacity="0" result="BackgroundImageFix"/>
<feColorMatrix in="SourceAlpha" type="matrix" values="0 0 0 0 0 0 0 0 0 0 0 0 0 0 0 0 0 0 127 0" result="hardAlpha"/>
<feOffset dy="28.5714"/>
<feColorMatrix type="matrix" values="0 0 0 0 0 0 0 0 0 0 0 0 0 0 0 0 0 0 0.06 0"/>
<feBlend mode="normal" in2="BackgroundImageFix" result="effect1_dropShadow_85_537"/>
<feBlend mode="normal" in="SourceGraphic" in2="effect1_dropShadow_85_537" result="shape"/>
</filter>
<linearGradient id="paint0_linear_85_537" x1="2.43262" y1="1.5238" x2="2.43262" y2="9.14284" gradientUnits="userSpaceOnUse">
<stop stop-color="white"/>
<stop offset="1" stop-color="#F0F0F0"/>
</linearGradient>
</defs>
</svg>
